<?xml version="1.0" encoding="UTF-8" standalone="no"?>
<svg width="61px" height="60px" viewBox="0 0 61 60" version="1.1" xmlns="http://www.w3.org/2000/svg" xmlns:xlink="http://www.w3.org/1999/xlink" xmlns:sketch="http://www.bohemiancoding.com/sketch/ns">
    <!-- Generator: Sketch 3.2.2 (9983) - http://www.bohemiancoding.com/sketch -->
    <title>Facebook</title>
    <desc>Created with Sketch.</desc>
    <defs></defs>
    <g id="Page-1" stroke="none" stroke-width="1" fill="none" fill-rule="evenodd" sketch:type="MSPage">
        <g id="Facebook" sketch:type="MSLayerGroup">
            <path id="fb-svg-bg" d="M0.11416185,30 C0.11416185,13.4314567 13.5650282,0 30.1575145,0 C46.7500007,0 60.2008671,13.4314567 60.2008671,30 C60.2008671,46.5685433 46.7500007,60 30.1575145,60 C13.5650282,60 0.11416185,46.5685433 0.11416185,30 L0.11416185,30 Z"  fill="#3B5998" sketch:type="MSShapeGroup"></path>
            <path d="M32.6697148,46.3196729 L32.6697148,29.9980891 L37.1751858,29.9980891 L37.772258,24.3735809 L32.6697148,24.3735809 L32.6773696,21.5584604 C32.6773696,20.091502 32.8167502,19.3054722 34.9237261,19.3054722 L37.7403631,19.3054722 L37.7403631,13.6803271 L33.2342542,13.6803271 C27.8216928,13.6803271 25.9166115,16.4088187 25.9166115,20.9972835 L25.9166115,24.3742179 L22.5427709,24.3742179 L22.5427709,29.998726 L25.9166115,29.998726 L25.9166115,46.3196729 L32.6697148,46.3196729 L32.6697148,46.3196729 Z" id="Path" fill="#FFFFFF" sketch:type="MSShapeGroup"></path>
        </g>
    </g>
</svg>