<?xml version="1.0" encoding="UTF-8" standalone="no"?>
<svg width="300px" height="212px" viewBox="0 0 300 212" version="1.1" xmlns="http://www.w3.org/2000/svg" xmlns:xlink="http://www.w3.org/1999/xlink" xmlns:sketch="http://www.bohemiancoding.com/sketch/ns">
    <!-- Generator: Sketch 3.3.3 (12072) - http://www.bohemiancoding.com/sketch -->
    <title>leaders</title>
    <desc>Created with Sketch.</desc>
    <defs></defs>
    <g id="Page-1" stroke="none" stroke-width="1" fill="none" fill-rule="evenodd" sketch:type="MSPage">
        <g id="leaders" sketch:type="MSLayerGroup" fill="#FFFFFF">
            <g id="Group" sketch:type="MSShapeGroup">
                <path d="M148.639923,52.8696737 C162.831478,52.8696737 174.376583,41.3245681 174.376583,27.1335893 C174.376583,12.9420345 162.830902,1.39692898 148.639923,1.39692898 C134.451823,1.39692898 122.909597,12.9426104 122.909597,27.1335893 C122.909021,41.3245681 134.451823,52.8696737 148.639923,52.8696737 L148.639923,52.8696737 Z" id="Shape"></path>
                <path d="M190.53858,68.0642994 C208.972745,51.1946257 210.84357,47.4892514 211.84952,45.4975048 C216.252783,36.7779271 218.465067,16.4902111 218.864107,12.5119002 C219.466987,6.50441459 215.068906,1.12571977 209.059117,0.52168906 C208.696353,0.485412668 208.328983,0.466986564 207.966219,0.466986564 C202.317466,0.466986564 197.633205,4.7049904 197.067754,10.3243762 C196.141843,19.5253359 194.102303,31.6664107 192.403647,35.3959693 C190.257006,38.4834933 179.792706,48.3852207 168.758349,58.2328215 L130.855854,58.2328215 C119.821497,48.3840691 109.356046,38.4823417 107.209405,35.3948177 C105.510749,31.6698656 103.471785,19.5287908 102.546449,10.3272553 C101.982726,4.7049904 97.3019194,0.465259117 91.6571977,0.465259117 C91.2915547,0.465259117 90.9213052,0.483685221 90.5556622,0.520537428 C84.5452975,1.12341651 80.1466411,6.50268714 80.7489443,12.5113244 C81.1474088,16.4902111 83.3596929,36.7796545 87.7629559,45.496929 C88.7677543,47.4869482 90.6380038,51.1917466 109.075624,68.0642994 C114.196353,72.7508637 119.08906,77.0809981 122.275624,79.8754319 L122.275624,200.230134 C122.275624,206.51286 127.386564,211.6238 133.668714,211.6238 C139.95144,211.6238 145.06238,206.51286 145.06238,200.230134 L145.06238,137.112092 L152.26238,137.112092 L152.26238,200.230134 C152.26238,206.51286 157.373321,211.6238 163.656046,211.6238 C169.938772,211.6238 175.049712,206.51286 175.049712,200.230134 L175.011708,81.9092131 C177.623033,79.6358925 183.909789,74.131094 190.53858,68.0642994 L190.53858,68.0642994 Z" id="Shape"></path>
                <path d="M93.4767754,96.8683301 C92.2646833,94.0641075 89.5284069,92.2583493 86.4823417,92.1863724 C86.4633397,92.1857965 58.93762,92.18119 58.8915547,92.18119 C56.5641075,92.18119 54.4071017,93.2159309 52.9548944,94.9341651 L51.4928983,91.5547025 C50.3982726,89.0228407 47.9078695,87.387524 45.1485605,87.387524 L20.2295585,87.387524 C16.8598848,87.387524 14.9798464,89.0234165 13.8857965,91.5547025 L0.571785029,122.34357 C-0.161228407,124.037044 -0.190019194,125.914779 0.488867562,127.630134 C1.16890595,129.345489 2.47600768,130.692898 4.16890595,131.42476 C5.04184261,131.803071 5.96314779,131.994818 6.90863724,131.994818 C9.66679463,131.994818 12.1560461,130.358925 13.2506718,127.827639 L16.0485605,121.357198 L16.0485605,180.97025 C16.0485605,185.164491 19.4619962,188.576775 23.6568138,188.576775 C27.8510557,188.576775 31.2633397,185.164491 31.2633397,180.97025 L31.2633397,141.91094 L34.471785,141.91094 L34.471785,180.97025 C34.471785,185.164491 37.8846449,188.576775 42.0788868,188.576775 C46.2731286,188.576775 49.6859885,185.164491 49.6859885,180.97025 L49.6859885,139.772937 C50.2393474,139.15739 50.7034549,138.450864 51.0431862,137.664299 L54.1508637,130.476392 C54.1641075,130.48618 54.1767754,130.497697 54.1894434,130.508061 L54.1894434,197.432246 C54.1894434,202.149328 58.0278311,205.98714 62.7454894,205.98714 C67.462572,205.98714 71.3003839,202.149328 71.3003839,197.432246 L71.3003839,153.036276 L74.9084453,153.036276 L74.9084453,197.432246 C74.9084453,202.149328 78.7462572,205.98714 83.4639155,205.98714 C88.1809981,205.98714 92.01881,202.149328 92.01881,197.432246 L92.0389635,132.693282 L94.1884837,137.664875 C95.4201536,140.511708 98.2203455,142.35144 101.322265,142.35144 C102.384069,142.35144 103.420537,142.136084 104.402879,141.711132 C106.307678,140.888292 107.777159,139.372745 108.541843,137.443186 C109.306526,135.513628 109.273129,133.402111 108.449712,131.497889 L93.4767754,96.8683301 L93.4767754,96.8683301 Z" id="Shape"></path>
                <path d="M73.8794626,89.334357 C84.6765835,89.334357 93.4600768,80.5502879 93.4600768,69.753167 C93.4600768,58.9566219 84.6765835,50.1731286 73.8794626,50.1731286 C63.0852207,50.1731286 54.3034549,58.9566219 54.3034549,69.753167 C54.3034549,80.5502879 63.0852207,89.334357 73.8794626,89.334357 L73.8794626,89.334357 Z" id="Shape"></path>
                <path d="M33.5550864,84.8550864 C43.1550864,84.8550864 50.9648752,77.0452975 50.9648752,67.4452975 C50.9648752,57.8458733 43.1550864,50.0360845 33.5550864,50.0360845 C23.9573896,50.0360845 16.1493282,57.8464491 16.1493282,67.4452975 C16.149904,77.0447217 23.9573896,84.8550864 33.5550864,84.8550864 L33.5550864,84.8550864 Z" id="Shape"></path>
                <path d="M206.152975,69.753167 C206.152975,80.5502879 214.936468,89.334357 225.733589,89.334357 C236.527831,89.334357 245.309597,80.5502879 245.309597,69.753167 C245.309597,58.9566219 236.527831,50.1731286 225.733589,50.1731286 C214.936468,50.1731286 206.152975,58.9566219 206.152975,69.753167 L206.152975,69.753167 Z" id="Shape"></path>
                <path d="M299.041843,122.34357 L285.727255,91.5547025 C284.633781,89.0228407 282.143378,87.387524 279.383493,87.387524 L254.464491,87.387524 C251.705182,87.387524 249.215355,89.0234165 248.120154,91.5547025 L246.658157,94.9347409 C245.20595,93.2165067 243.048944,92.1817658 240.721497,92.1817658 C240.675432,92.1817658 213.149712,92.1869482 213.13071,92.1869482 C209.757582,92.1869482 207.348369,94.0646833 206.136276,96.868906 L191.162188,131.496737 C190.338196,133.401536 190.305374,135.513052 191.070058,137.442035 C191.834165,139.371593 193.304223,140.88714 195.208445,141.709981 C196.191363,142.134933 197.227831,142.350288 198.289635,142.350288 C201.391555,142.350288 204.191747,140.511132 205.423417,137.663724 L207.572937,132.692131 L207.59309,197.431094 C207.59309,202.148177 211.430902,205.985988 216.14856,205.985988 C220.866219,205.985988 224.704031,202.148177 224.704031,197.431094 L224.704031,153.035125 L228.312092,153.035125 L228.312092,197.431094 C228.312092,202.148177 232.149904,205.985988 236.866987,205.985988 C241.584645,205.985988 245.423033,202.148177 245.423033,197.431094 L245.423033,130.50691 C245.435701,130.496545 245.448369,130.485605 245.461612,130.47524 L248.56929,137.663148 C248.909597,138.449712 249.373129,139.156238 249.926488,139.771785 L249.926488,180.969098 C249.926488,185.16334 253.339347,188.575624 257.533589,188.575624 C261.727831,188.575624 265.140691,185.16334 265.140691,180.969098 L265.140691,141.909789 L268.349136,141.909789 L268.349136,180.969098 C268.349136,185.16334 271.76142,188.575624 275.955662,188.575624 C280.15048,188.575624 283.563916,185.16334 283.563916,180.969098 L283.563916,121.356046 L286.361804,127.826488 C287.455854,130.357774 289.945681,131.993666 292.703839,131.993666 C293.649328,131.993666 294.570633,131.801919 295.442418,131.424184 C297.135893,130.692322 298.44357,129.344338 299.123608,127.628983 C299.803071,125.914203 299.77428,124.037044 299.041843,122.34357 L299.041843,122.34357 Z" id="Shape"></path>
                <path d="M266.057965,84.8550864 C275.655662,84.8550864 283.463724,77.0452975 283.463724,67.4452975 C283.463724,57.8458733 275.655662,50.0360845 266.057965,50.0360845 C256.457965,50.0360845 248.648177,57.8464491 248.648177,67.4452975 C248.647601,77.0447217 256.457965,84.8550864 266.057965,84.8550864 L266.057965,84.8550864 Z" id="Shape"></path>
            </g>
        </g>
    </g>
</svg>