<?xml version="1.0" encoding="UTF-8" standalone="no"?>
<svg width="106px" height="90px" viewBox="0 0 106 90" version="1.1" xmlns="http://www.w3.org/2000/svg" xmlns:xlink="http://www.w3.org/1999/xlink" xmlns:sketch="http://www.bohemiancoding.com/sketch/ns">
    <!-- Generator: Sketch 3.3.3 (12072) - http://www.bohemiancoding.com/sketch -->
    <title>medium</title>
    <desc>Created with Sketch.</desc>
    <defs></defs>
    <g id="Page-1" stroke="none" stroke-width="1" fill="none" fill-rule="evenodd" sketch:type="MSPage">
        <g id="medium" sketch:type="MSLayerGroup">
            <path d="M73.286,0.932 C71.692,0.135 70.388,0.941 70.388,2.723 L70.388,73.612 L99.477,88.157 C102.678,89.757 105.273,88.637 105.273,85.655 L105.273,17.391 C105.273,17.106 105.111,16.844 104.856,16.716 L73.286,0.932" id="Fill-1" fill="#CCCDC9" sketch:type="MSShapeGroup"></path>
            <path d="M35.504,56.17 L68.69,2.242 C69.624,0.724 71.692,0.135 73.286,0.932 L104.892,16.735 C105.097,16.837 105.17,17.093 105.05,17.288 L70.388,73.612 L35.504,56.17" id="Fill-2" fill="#9EA1A0" sketch:type="MSShapeGroup"></path>
            <path d="M5.449,1.898 C2.792,0.569 1.893,1.552 3.449,4.082 L35.504,56.17 L70.388,73.612 L35.579,17.047 C35.53,16.967 35.459,16.903 35.375,16.861 L5.449,1.898" id="Fill-3" fill="#797B79" sketch:type="MSShapeGroup"></path>
            <path d="M30.674,88.64 L3.517,75.061 C1.923,74.264 0.619,72.154 0.619,70.372 L0.619,3.803 C0.619,1.427 2.358,0.352 4.483,1.415 L35.316,16.831 C35.431,16.889 35.504,17.006 35.504,17.135 L35.504,85.655 C35.504,88.625 33.33,89.968 30.674,88.64 Z" id="Fill-4" fill="#515251" sketch:type="MSShapeGroup"></path>
        </g>
    </g>
</svg>