<?xml version="1.0" encoding="UTF-8" standalone="no"?>
<svg width="76px" height="90px" viewBox="0 0 76 90" version="1.1" xmlns="http://www.w3.org/2000/svg" xmlns:xlink="http://www.w3.org/1999/xlink" xmlns:sketch="http://www.bohemiancoding.com/sketch/ns">
    <!-- Generator: Sketch 3.3.3 (12072) - http://www.bohemiancoding.com/sketch -->
    <title>youtube18</title>
    <desc>Created with Sketch.</desc>
    <defs></defs>
    <g id="Page-1" stroke="none" stroke-width="1" fill="none" fill-rule="evenodd" sketch:type="MSPage">
        <g id="youtube18" sketch:type="MSLayerGroup" fill="#FFFFFF">
            <path d="M63.939,65.832 L59,65.832 L59.023,62.963 C59.023,61.688 60.07,60.645 61.349,60.645 L61.664,60.645 C62.946,60.645 63.996,61.688 63.996,62.963 L63.939,65.832 L63.939,65.832 Z M45.413,59.684 C44.16,59.684 43.135,60.526 43.135,61.557 L43.135,75.51 C43.135,76.539 44.16,77.379 45.413,77.379 C46.671,77.379 47.697,76.539 47.697,75.51 L47.697,61.557 C47.697,60.525 46.671,59.684 45.413,59.684 L45.413,59.684 Z M75.5,51.879 L75.5,78.423 C75.5,84.79 69.979,90 63.23,90 L12.771,90 C6.02,90 0.5,84.79 0.5,78.423 L0.5,51.879 C0.5,45.512 6.02,40.301 12.771,40.301 L63.23,40.301 C69.979,40.301 75.5,45.512 75.5,51.879 L75.5,51.879 Z M16.137,81.305 L16.133,53.344 L22.388,53.346 L22.388,49.203 L5.714,49.178 L5.714,53.251 L10.919,53.266 L10.919,81.305 L16.137,81.305 L16.137,81.305 Z M34.887,57.509 L29.672,57.509 L29.672,72.44 C29.672,74.6 29.803,75.68 29.664,76.061 C29.24,77.219 27.334,78.449 26.591,76.186 C26.465,75.79 26.576,74.595 26.574,72.543 L26.553,57.509 L21.367,57.509 L21.383,72.307 C21.387,74.575 21.332,76.266 21.401,77.036 C21.528,78.393 21.483,79.975 22.742,80.879 C25.088,82.569 29.585,80.627 30.71,78.211 L30.7,81.294 L34.888,81.299 L34.887,57.509 L34.887,57.509 Z M51.57,74.607 L51.559,62.18 C51.555,57.444 48.012,54.608 43.203,58.44 L43.224,49.201 L38.015,49.209 L37.99,81.099 L42.274,81.037 L42.664,79.051 C48.137,84.072 51.578,80.631 51.57,74.607 L51.57,74.607 Z M67.891,72.96 L63.981,72.981 C63.979,73.136 63.973,73.315 63.971,73.51 L63.971,75.692 C63.971,76.86 63.006,77.811 61.834,77.811 L61.068,77.811 C59.894,77.811 58.929,76.86 58.929,75.692 L58.929,75.45 L58.929,73.05 L58.929,69.953 L67.883,69.953 L67.883,66.583 C67.883,64.12 67.82,61.658 67.616,60.25 C66.975,55.796 60.723,55.089 57.565,57.369 C56.574,58.081 55.817,59.034 55.377,60.314 C54.933,61.595 54.712,63.345 54.712,65.568 L54.712,72.978 C54.714,85.296 69.676,83.555 67.891,72.96 L67.891,72.96 Z M47.833,32.732 C48.102,33.386 48.52,33.916 49.087,34.316 C49.647,34.71 50.363,34.908 51.221,34.908 C51.973,34.908 52.639,34.705 53.219,34.286 C53.797,33.869 54.284,33.246 54.682,32.415 L54.583,34.461 L60.396,34.461 L60.396,9.74 L55.82,9.74 L55.82,28.98 C55.82,30.022 54.962,30.875 53.913,30.875 C52.87,30.875 52.009,30.022 52.009,28.98 L52.009,9.74 L47.233,9.74 L47.233,26.414 C47.233,28.538 47.272,29.954 47.335,30.672 C47.4,31.385 47.564,32.069 47.833,32.732 L47.833,32.732 Z M30.217,18.77 C30.217,16.397 30.415,14.544 30.808,13.208 C31.204,11.877 31.915,10.807 32.945,10 C33.972,9.189 35.287,8.783 36.886,8.783 C38.231,8.783 39.383,9.047 40.345,9.564 C41.312,10.084 42.058,10.759 42.575,11.592 C43.102,12.428 43.46,13.287 43.651,14.166 C43.846,15.057 43.942,16.401 43.942,18.214 L43.942,24.466 C43.942,26.759 43.85,28.446 43.671,29.517 C43.494,30.591 43.114,31.587 42.525,32.521 C41.945,33.445 41.196,34.136 40.288,34.577 C39.37,35.022 38.32,35.24 37.134,35.24 C35.809,35.24 34.693,35.057 33.773,34.675 C32.85,34.295 32.137,33.722 31.629,32.961 C31.116,32.199 30.755,31.271 30.537,30.189 C30.318,29.108 30.214,27.482 30.214,25.315 L30.217,18.77 L30.217,18.77 Z M34.77,28.59 C34.77,29.99 35.812,31.133 37.081,31.133 C38.351,31.133 39.389,29.99 39.389,28.59 L39.389,15.43 C39.389,14.032 38.351,12.889 37.081,12.889 C35.812,12.889 34.77,14.032 34.77,15.43 L34.77,28.59 L34.77,28.59 Z M18.682,35.235 L24.166,35.235 L24.172,16.275 L30.652,0.033 L24.654,0.033 L21.209,12.097 L17.715,0 L11.779,0 L18.673,16.284 L18.682,35.235 L18.682,35.235 Z" id="YouTube" sketch:type="MSShapeGroup"></path>
        </g>
    </g>
</svg>