<?xml version="1.0" encoding="utf-8"?>
<!-- Generator: Adobe Illustrator 18.1.1, SVG Export Plug-In . SVG Version: 6.00 Build 0)  -->
<!DOCTYPE svg PUBLIC "-//W3C//DTD SVG 1.1//EN" "http://www.w3.org/Graphics/SVG/1.1/DTD/svg11.dtd">
<svg version="1.1" id="Livello_1" xmlns="http://www.w3.org/2000/svg" xmlns:xlink="http://www.w3.org/1999/xlink" x="0px" y="0px"
	 viewBox="0 0 180 180" enable-background="new 0 0 180 180" xml:space="preserve">
<g>
	<path fill="#005970" stroke="#005970" stroke-width="0.5" stroke-miterlimit="10" d="M113,78.3c-0.5-0.2-1.1-0.5-1.6-0.7l-3-1.1
		l3.1-0.9c0.7-0.2,1.3-0.4,1.8-0.6c4.3-1.6,8.2-4.8,7.3-7.2c-0.3-0.7-1.1-1.8-4-1.8c-1.8,0-4,0.5-6.2,1.3c-2.2,0.8-4.1,2-5.5,3.2
		l-1.7,1.5v-4.3c0-2.1-1.7-3.8-3.8-3.8c-2.1,0-3.8,1.7-3.8,3.8v11.4L94,78.7c-1.4-0.6-3.2-0.3-4.3,0.8L89,80.2l-0.7-0.7
		c-0.7-0.7-1.7-1.1-2.7-1.1c-1.6,0-3.1,1-3.6,2.6L81.6,82l-1.1-0.6C80,81.2,79.3,81,78.7,81c-2.1,0-3.8,1.7-3.8,3.8l0,2v14.2
		c0,7.8,6.3,14.1,14.2,14.1c7.8,0,14.1-6.3,14.1-14.1V81.3l1.7,1.5c1.3,1.1,3,2.2,4.8,3c2.4,1.1,4.8,1.7,6.7,1.7
		c2.5,0,3.3-1,3.5-1.5c0.3-0.6,0.5-1.9-1.4-3.9C117.2,80.7,115.3,79.4,113,78.3z M96.3,67.9c0-1.7,1.4-3,3-3c1.7,0,3,1.4,3,3v5.7
		h-6.1V67.9z M96.3,74.4h6.1v4h-6.1V74.4z M96.3,79.2h6.1v11.6l-1.6-1.3c-0.9-0.7-2-1.3-3.3-1.7l-1.1-0.4V79.2z M89.4,82.2
		c0-1.7,1.4-3,3-3s3,1.4,3,3v5L94.3,87c-1.3-0.2-2.4-0.3-2.6-0.3c-0.3,0-0.7,0-1.2,0l-1.1,0.1V82.2z M82.5,82.2c0-1.7,1.4-3,3-3
		c1.7,0,3,1.4,3,3v4.9l-0.5,0.3c-1,0.6-1.5,1.6-1.5,3.1c0,1.1,0.4,1.8,1.4,2.4l0.5,0.3v3.1c0,1.7-1.4,3-3,3c-1.7,0-3-1.4-3-3V82.2z
		 M75.7,84.8c0-1.6,1.3-3,3-3c1.6,0,3,1.3,3,3v9.1c0,1.6-1.3,3-3,3c-1.6,0-3-1.3-3-3V84.8z M102.4,100.9c0,7.4-6,13.3-13.3,13.3
		c-7.4,0-13.3-6-13.3-13.3v-4.3l1.4,0.7c1.1,0.5,2.4,0.4,3.4-0.1l1-0.6l0.4,1.1c0.6,1.5,2,2.5,3.6,2.5c2.1,0,3.8-1.7,3.8-3.8v-2.8
		l1.9,0.5c1.6,0.4,2.7,0.7,3.3,1.3c1.7,1.7,0.9,7.1,0.9,7.1c0,0.2,0.1,0.4,0.3,0.5c0.2,0,0.4-0.1,0.5-0.3c0.4-2.1,0.5-6.2-1.1-7.8
		c-0.8-0.8-2.3-1.2-3.7-1.5c-2.1-0.5-4-0.9-4-2.7c0-2.8,1.9-3,4.2-3c0.5,0,10.7,0.6,10.7,6.8V100.9z M103.9,73.1
		c0.6-1.3,2.7-3.3,6.7-4.9c2.1-0.8,4.2-1.2,5.9-1.2c0.8,0,2.8,0.1,3.3,1.2c0.1,0.4,0.1,0.8-0.1,1.2c-0.6,1.4-3,3.5-6.8,4.9
		c-2.1,0.8-4.2,1.2-5.9,1.2c-0.8,0-2.8-0.1-3.3-1.2C103.7,74,103.7,73.6,103.9,73.1z M119.2,85.6c-0.4,0.9-1.9,1.1-2.8,1.1
		c-1.8,0-4.1-0.6-6.4-1.6c-3.7-1.7-5.9-3.9-6.5-5.3c-0.2-0.5-0.2-0.9,0-1.2c0.4-0.9,1.9-1.1,2.8-1.1c1.8,0,4.1,0.6,6.4,1.6
		c2.1,1,4,2.2,5.2,3.5C118.5,83.1,119.6,84.6,119.2,85.6z"/>
</g>
<g>
	<path fill="#005970" d="M89.8,2c48.5,0,88,39.5,88,88s-39.5,88-88,88s-88-39.5-88-88S41.3,2,89.8,2 M89.8,0c-49.7,0-90,40.3-90,90
		c0,49.7,40.3,90,90,90s90-40.3,90-90C179.8,40.3,139.5,0,89.8,0L89.8,0z"/>
</g>
</svg>
