<?xml version="1.0" encoding="utf-8"?>
<!-- Generator: Adobe Illustrator 18.1.1, SVG Export Plug-In . SVG Version: 6.00 Build 0)  -->
<!DOCTYPE svg PUBLIC "-//W3C//DTD SVG 1.1//EN" "http://www.w3.org/Graphics/SVG/1.1/DTD/svg11.dtd">
<svg version="1.1" id="Livello_1" xmlns="http://www.w3.org/2000/svg" xmlns:xlink="http://www.w3.org/1999/xlink" x="0px" y="0px"
	 viewBox="0 0 180 180" enable-background="new 0 0 180 180" xml:space="preserve">
<g>
	<path fill="#005970" stroke="#005970" stroke-width="0.5" stroke-miterlimit="10" d="M101.6,81.7c-0.1,0-0.2,0-0.3,0.1L90,93.2
		c-0.1,0.1-0.1,0.2-0.1,0.3c0,0.1,0,0.2,0.1,0.3c0.2,0.2,0.4,0.2,0.6,0l11.3-11.4c0.2-0.2,0.2-0.4,0-0.6
		C101.8,81.7,101.7,81.7,101.6,81.7z"/>
	<polygon fill="#005970" stroke="#005970" stroke-width="0.5" stroke-miterlimit="10" points="77.2,73.2 76.7,72.6 71.4,77.2 
		72,77.8 	"/>
	<path fill="#005970" stroke="#005970" stroke-width="0.5" stroke-miterlimit="10" d="M91.3,72.4l-0.6,0v-3.1h3.5
		c1.3,0,2.4-1.1,2.4-2.4c0-1.3-1.1-2.4-2.4-2.4h-7.9c-1.3,0-2.4,1.1-2.4,2.4c0,1.3,1.1,2.4,2.4,2.4h3.5v3.1l-0.6,0
		c-11.3,0.5-20.1,9.7-20.1,21c0,11.6,9.4,21.1,21.1,21.1c11.6,0,21.1-9.4,21.1-21.1C111.4,82.1,102.5,72.9,91.3,72.4z M86.4,68.4
		c-0.9,0-1.6-0.7-1.6-1.6c0-0.9,0.7-1.6,1.6-1.6h7.9c0.9,0,1.6,0.7,1.6,1.6c0,0.9-0.7,1.6-1.6,1.6H86.4z M90.3,113.7
		c-11.2,0-20.3-9.1-20.3-20.3c0-11.2,9.1-20.3,20.3-20.3c11.2,0,20.3,9.1,20.3,20.3C110.6,104.6,101.5,113.7,90.3,113.7z"/>
</g>
<g>
	<path fill="#005970" d="M90,2c48.5,0,88,39.5,88,88s-39.5,88-88,88S2,138.5,2,90S41.5,2,90,2 M90,0C40.3,0,0,40.3,0,90
		c0,49.7,40.3,90,90,90s90-40.3,90-90C180,40.3,139.7,0,90,0L90,0z"/>
</g>
</svg>
