<svg version="1.1" id="what-is-first" xmlns="http://www.w3.org/2000/svg" xmlns:xlink="http://www.w3.org/1999/xlink" x="0px" y="0px"
	 viewBox="0 0 180 180" enable-background="new 0 0 180 180" xml:space="preserve">
<g>
	<path fill="#005970" stroke="#005970" stroke-width="0.5" stroke-miterlimit="10" d="M94.9,96.1h-15c-0.2,0-0.4,0.2-0.4,0.4v6.2
		c0,0.2,0.2,0.4,0.4,0.4h15c0.2,0,0.4-0.2,0.4-0.4v-6.2C95.3,96.3,95.1,96.1,94.9,96.1z M94.6,102.3H80.3v-5.4h14.3V102.3z"/>
	<path fill="#005970" stroke="#005970" stroke-width="0.5" stroke-miterlimit="10" d="M104.4,75.3L90,65.1c-0.1-0.1-0.3-0.1-0.4,0
		L75.2,75.3c-0.1,0.1-0.2,0.2-0.2,0.3v39.1c0,0.2,0.2,0.4,0.4,0.4h28.8c0.2,0,0.4-0.2,0.4-0.4V75.6
		C104.5,75.4,104.5,75.3,104.4,75.3z M103.8,114.3h-28V75.8l14-9.9l14,9.9V114.3z"/>
	<path fill="#005970" stroke="#005970" stroke-width="0.5" stroke-miterlimit="10" d="M85.9,74.2c0,2.1,1.7,3.8,3.8,3.8
		s3.8-1.7,3.8-3.8c0-2.1-1.7-3.8-3.8-3.8S85.9,72.1,85.9,74.2z M89.8,71.1c1.7,0,3.1,1.4,3.1,3.1c0,1.7-1.4,3.1-3.1,3.1
		c-1.7,0-3.1-1.4-3.1-3.1C86.7,72.5,88.1,71.1,89.8,71.1z"/>
	<path fill="#005970" stroke="#005970" stroke-width="0.5" stroke-miterlimit="10" d="M79.5,89.7l0,3.3c0,0.1,0,0.2,0.1,0.3
		s0.2,0.1,0.2,0.1H98c0.2,0,0.3-0.2,0.3-0.4l0-3.3c0-0.1,0-0.2-0.1-0.3c-0.1-0.1-0.2-0.1-0.2-0.1H79.9
		C79.7,89.3,79.5,89.5,79.5,89.7z M80.2,90h17.5l0,2.6H80.2L80.2,90z"/>
</g>
<g>
	<path class="what-is-cerchio" d="M90.4,2c48.5,0,88,39.5,88,88s-39.5,88-88,88s-88-39.5-88-88S41.9,2,90.4,2 M90.4,0c-49.7,0-90,40.3-90,90
		c0,49.7,40.3,90,90,90s90-40.3,90-90C180.4,40.3,140.1,0,90.4,0L90.4,0z"/>
</g>
</svg>
