<?xml version="1.0" encoding="utf-8"?>
<!-- Generator: Adobe Illustrator 18.1.1, SVG Export Plug-In . SVG Version: 6.00 Build 0)  -->
<!DOCTYPE svg PUBLIC "-//W3C//DTD SVG 1.1//EN" "http://www.w3.org/Graphics/SVG/1.1/DTD/svg11.dtd">
<svg version="1.1" id="Livello_1" xmlns="http://www.w3.org/2000/svg" xmlns:xlink="http://www.w3.org/1999/xlink" x="0px" y="0px"
	 viewBox="0 0 180 180" enable-background="new 0 0 180 180" xml:space="preserve">
<g>
	<path fill="#005970" stroke="#005970" stroke-width="0.5" stroke-miterlimit="10" d="M84.1,81.1c0.7-1.3,0.8-2.8,0.3-4.2l-1.4-4.4
		c-0.8-2.5-3.3-4-5.8-3.7c-0.4,0-0.7,0.1-1.1,0.2l-19.8,6.5c-2.9,0.9-4.4,4-3.5,6.9l1.4,4.4c0.8,2.5,3.3,4,5.8,3.7l0,0
		c0.4,0,0.7-0.1,1.1-0.2l19.7-6.5C82.3,83.3,83.4,82.4,84.1,81.1z M60.9,89.7c-0.3,0.1-0.6,0.2-1,0.2l0,0c-2.2,0.3-4.4-1.1-5.1-3.3
		l-1.4-4.4c-0.8-2.5,0.5-5.2,3-6l19.8-6.5c0.3-0.1,0.6-0.2,1-0.2c2.2-0.3,4.4,1.1,5.1,3.3l1.4,4.4c0.4,1.2,0.3,2.5-0.3,3.6
		c-0.6,1.1-1.6,2-2.8,2.4L60.9,89.7z"/>
	<path fill="#005970" stroke="#005970" stroke-width="0.5" stroke-miterlimit="10" d="M126.2,83.9L104,81.5c-0.5-4-3.7-7.2-7.6-7.6
		c-0.6-0.1-1.2-0.1-1.8,0c-4,0.5-7.2,3.8-7.7,7.9c0,0.3,0,0.6,0,1c-1,0.6-1.9,1.5-2.7,2.5c-2.9,4-2.1,9.5,1.8,12.3
		c1.7,1.2,3.8,1.8,5.9,1.5c1.9-0.2,3.7-1.1,5.1-2.4l14.8,10.7l-1.2,1.6c-0.1,0.2-0.2,0.4-0.2,0.7c0,0.2,0.2,0.4,0.4,0.6l1.2,0.9
		c0.2,0.1,0.4,0.2,0.6,0.2c0.3,0,0.5-0.2,0.6-0.4l1.2-1.6l0.6,0.4c0.6,0.4,1.6,0.3,2-0.4l0.6-0.8c0.5-0.7,0.3-1.6-0.3-2l-18.1-13
		c0.4-1,0.6-2,0.7-3.1c1.8-1.1,3.1-2.9,3.8-4.9l14.2,1.5l-0.3,3.2c0,0.2,0,0.5,0.2,0.7c0.1,0.2,0.4,0.3,0.6,0.3l1.4,0.2
		c0.5,0,0.9-0.3,1-0.8l0.3-3.2l0.7,0.1l-0.2,2c0,0.2,0,0.5,0.2,0.7c0.1,0.2,0.4,0.3,0.6,0.3l1.4,0.2c0.5,0.1,0.9-0.3,1-0.8l0.2-2
		l0.7,0.1c0.1,0,0.2,0,0.3,0c0.7-0.1,1.2-0.6,1.3-1.3l0.1-1C127.6,84.7,127,84,126.2,83.9z M126.8,85.4l-0.1,1
		c0,0.4-0.4,0.7-0.8,0.7l-1.4-0.2l-0.3,2.7c0,0.1-0.1,0.2-0.2,0.2l-1.4-0.2c-0.1,0-0.1,0-0.1-0.1c0,0-0.1-0.1,0-0.2l0.3-2.7
		l-2.1-0.2l-0.4,3.9c0,0.1-0.1,0.2-0.2,0.2c0,0,0,0,0,0l-1.4-0.2c-0.1,0-0.1,0-0.1-0.1c0,0-0.1-0.1,0-0.2l0.4-4l-15.5-1.7l-0.1,0.3
		c-0.6,2.1-1.9,3.8-3.7,4.9L99.2,90l0,0.2c0,1.1-0.3,2.2-0.7,3.2l-0.1,0.3L117,107c0.3,0.2,0.4,0.7,0.1,1.1l-0.6,0.8
		c-0.2,0.3-0.7,0.4-1.1,0.2l-1.2-0.8l-1.6,2.2c-0.1,0.1-0.1,0.1-0.3,0.1l-1.2-0.9c0,0-0.1-0.1-0.1-0.1c0-0.1,0-0.1,0-0.2l1.6-2.2
		L97,95.8L96.8,96c-1.3,1.3-3.1,2.2-4.9,2.4c-1.9,0.2-3.8-0.3-5.4-1.4c-3.5-2.5-4.3-7.6-1.6-11.3c0.7-1,1.6-1.8,2.6-2.4l0.2-0.1
		l0-0.2c0-0.4,0-0.8,0-1.1c0.4-3.8,3.4-6.9,7-7.3c0.6-0.1,1.1-0.1,1.7,0c3.7,0.4,6.6,3.4,7,7.2l0,0.3l22.7,2.4
		C126.5,84.6,126.8,85,126.8,85.4z"/>
	<path fill="#005970" stroke="#005970" stroke-width="0.5" stroke-miterlimit="10" d="M96.2,76.5c-0.4,0-0.9,0-1.3,0
		c-2.8,0.3-5.1,2.6-5.4,5.6l-0.1,0.5l0.5-0.1c2.2-0.5,4.4,0,6.2,1.3c1.3,0.9,2.3,2.3,2.8,3.8L99,88l0.4-0.3c1.3-1.1,2-2.6,2.2-4.2
		C102,80,99.6,76.8,96.2,76.5z M100.9,83.4c-0.1,1.3-0.7,2.5-1.6,3.4c-0.6-1.5-1.6-2.7-2.9-3.7c-1.7-1.2-3.8-1.8-5.9-1.5
		c-0.1,0-0.2,0-0.3,0c0.5-2.4,2.4-4.2,4.7-4.5c0.4,0,0.8,0,1.2,0C99.1,77.5,101.2,80.3,100.9,83.4z"/>
	<path fill="#005970" stroke="#005970" stroke-width="0.5" stroke-miterlimit="10" d="M94.7,90.9c-3-0.3-5.5-2.4-6.6-5.3l-0.2-0.5
		l-0.4,0.3c-0.5,0.4-0.9,0.8-1.3,1.3c-2,2.8-1.5,6.8,1.3,8.7c1.2,0.9,2.7,1.3,4.2,1.1c1.8-0.2,3.4-1.2,4.5-2.7
		c0.6-0.8,1-1.7,1.1-2.7l0.1-0.5l-0.5,0.1C96.2,91,95.4,91,94.7,90.9z M95.7,93.5c-1,1.3-2.4,2.2-4,2.4c-1.3,0.2-2.6-0.2-3.7-1
		c-2.4-1.7-2.9-5.2-1.1-7.7c0.2-0.3,0.5-0.6,0.8-0.9c1.2,3,3.8,5,7,5.3c0.7,0.1,1.3,0.1,2,0C96.4,92.3,96.1,92.9,95.7,93.5z"/>
	<path fill="#005970" stroke="#005970" stroke-width="0.5" stroke-miterlimit="10" d="M95,85.2c-1.4-1-3.3-1.4-5-0.9l-0.4,0.1
		l0.1,0.4c0.7,2.4,2.8,4.1,5.2,4.4c0.4,0,0.9,0,1.3,0c0.3,0,0.6-0.1,0.9-0.2l0.3-0.1l-0.1-0.3C96.9,87.1,96.1,86,95,85.2z
		 M94.9,88.4c-2-0.2-3.7-1.6-4.5-3.5c1.4-0.3,2.9,0.1,4.1,0.9c0.9,0.6,1.5,1.5,1.9,2.6C95.9,88.4,95.4,88.4,94.9,88.4z"/>
	<path fill="#005970" stroke="#005970" stroke-width="0.5" stroke-miterlimit="10" d="M57.9,81.2c-0.1,0-0.3-0.1-0.3-0.2
		c-0.1-0.2,0-0.4,0.2-0.4l19.9-6.4c0.2-0.1,0.4,0,0.4,0.2c0.1,0.2,0,0.4-0.2,0.4L58,81.2C57.9,81.2,57.9,81.2,57.9,81.2z"/>
	<path fill="#005970" stroke="#005970" stroke-width="0.5" stroke-miterlimit="10" d="M62.7,83.6c-0.1,0-0.3-0.1-0.3-0.2
		c-0.1-0.2,0-0.4,0.2-0.4l10-3.2c0.2-0.1,0.4,0,0.4,0.2c0.1,0.2,0,0.4-0.2,0.4l-10,3.2C62.7,83.6,62.7,83.6,62.7,83.6z"/>
</g>
<g>
	<path fill="#005970" d="M90,2c48.5,0,88,39.5,88,88s-39.5,88-88,88S2,138.5,2,90S41.5,2,90,2 M90,0C40.3,0,0,40.3,0,90
		c0,49.7,40.3,90,90,90s90-40.3,90-90C180,40.3,139.7,0,90,0L90,0z"/>
</g>
</svg>
